<svg xmlns="http://www.w3.org/2000/svg" xmlns:xlink="http://www.w3.org/1999/xlink" width="200" height="200" viewBox="0 0 200 200"><defs><clipPath id="a"><circle cx="100" cy="100" r="100" transform="translate(127 1187)" fill="#fafafa"/></clipPath></defs><g transform="translate(-127 -1187)" clip-path="url(#a)"><g transform="translate(151.302 1208.718)"><g transform="translate(2.07 12.704)"><path d="M101.809,76.2a5.288,5.288,0,0,1-4.731-7.655l18.384-36.733a5.29,5.29,0,0,1,9.462,4.733L106.539,73.275a5.288,5.288,0,0,1-4.73,2.921Z" transform="translate(-25.526 -17.141)" fill="#4bd7c8"/><path d="M133.059,76.2a5.288,5.288,0,0,1-4.731-7.655l18.384-36.733a5.29,5.29,0,0,1,9.462,4.733L137.789,73.275a5.288,5.288,0,0,1-4.73,2.921Z" transform="translate(-33.121 -17.141)" fill="#4bd7c8"/><path d="M123.007,70.475a5.289,5.289,0,0,0,4.731-2.921l9.947-19.879a5.29,5.29,0,0,0-9.462-4.733L118.277,62.82a5.288,5.288,0,0,0,4.73,7.655Z" transform="translate(-30.678 -19.846)" fill="#ccf4ef"/><path d="M166.7,87.885,152.814,60.136,146.9,71.954l10.34,20.663a5.29,5.29,0,0,0,9.462-4.731Z" transform="translate(-37.77 -24.735)" fill="#ccf4ef"/><path d="M109.113,36.958,98.773,16.3a5.29,5.29,0,1,0-9.462,4.731L103.2,48.774Z" transform="translate(-23.639 -13.37)" fill="#ccf4ef"/><g transform="translate(0 30.67)"><path d="M82.295,58.617l-2.368-4.731H2.734v9.462H79.927Z" transform="translate(-2.734 -53.886)" fill="#99e9df"/><path d="M157.08,53.886l-2.368,4.731,2.368,4.731h29.844V53.886Z" transform="translate(-39.669 -53.886)" fill="#99e9df"/><path d="M39.259,155.925a5.288,5.288,0,0,1-4.731-7.656l18.384-36.733a5.29,5.29,0,0,1,9.462,4.733L43.989,153A5.287,5.287,0,0,1,39.259,155.925Z" transform="translate(-10.325 -67.186)" fill="#4bd7c8"/><path d="M70.509,155.925a5.288,5.288,0,0,1-4.731-7.656l18.384-36.733a5.29,5.29,0,0,1,9.462,4.733L75.239,153a5.287,5.287,0,0,1-4.73,2.923Z" transform="translate(-17.919 -67.186)" fill="#4bd7c8"/></g><path d="M60.457,150.2a5.288,5.288,0,0,0,4.731-2.923L75.135,127.4a5.29,5.29,0,0,0-9.462-4.733l-9.946,19.879a5.289,5.289,0,0,0,4.73,7.656Z" transform="translate(-15.477 -39.222)" fill="#ccf4ef"/><path d="M104.15,167.612,90.264,139.864,84.35,151.682l10.34,20.663a5.29,5.29,0,1,0,9.462-4.731Z" transform="translate(-22.569 -44.111)" fill="#ccf4ef"/><path d="M46.563,116.679,36.223,96.016a5.29,5.29,0,0,0-9.462,4.731L40.647,128.5Z" transform="translate(-8.437 -32.744)" fill="#ccf4ef"/><path d="M34.946,138.345l-2.368-4.731H2.734v9.462H32.578Z" transform="translate(-2.734 -42.592)" fill="#99e9df"/><path d="M94.53,133.614l-2.368,4.731,2.368,4.731h77.193v-9.462Z" transform="translate(-24.468 -42.592)" fill="#99e9df"/></g><g transform="translate(0 10.631)"><path d="M51.384,67.791a2.07,2.07,0,0,0,0-4.14H45.6a2.07,2.07,0,0,0,0,4.14Z" transform="translate(-10.578 -23.516)" fill="#262626"/><path d="M149.325,41.3H122.831l4.14-8.272a7.358,7.358,0,0,0-13.161-6.586L110.18,33.7a7.294,7.294,0,0,0-5.835-2.892c-.118,0-.228.019-.343.024a7.353,7.353,0,0,0-13.848-4.385l-2.61,5.216L79.056,14.7a7.359,7.359,0,0,0-13.162,6.585L75.912,41.3H2.07A2.071,2.071,0,0,0,0,43.374v9.462a2.07,2.07,0,0,0,2.07,2.07H21.142a2.07,2.07,0,1,0,0-4.14h-17V45.444H77.983l1.332,2.661-.473.946-.859,1.715h-23.3a2.07,2.07,0,0,0,0,4.14H75.913l-4.14,8.272a7.359,7.359,0,1,0,13.162,6.587l3.629-7.253A7.3,7.3,0,0,0,94.4,65.4c.118,0,.229-.018.344-.024a7.353,7.353,0,0,0,13.849,4.386L111.2,64.55l8.488,16.962A7.364,7.364,0,0,0,130.9,83.945a2.069,2.069,0,1,0-2.61-3.211,3.16,3.16,0,0,1-2.011.71A3.2,3.2,0,0,1,123.4,79.67l-9.882-19.745,3.6-7.191.516,1.033,6.346,12.682a2.07,2.07,0,1,0,3.7-1.852l-4.849-9.688h26.494a2.069,2.069,0,0,0,2.07-2.07V43.375a2.07,2.07,0,0,0-2.067-2.071Zm-79.589-25a3.154,3.154,0,0,1,2.738-1.527,3.193,3.193,0,0,1,2.878,1.774L85.23,36.293l-3.6,7.191-.516-1.041L69.6,19.43a3.156,3.156,0,0,1,.141-3.126Zm11.5,51.613a3.219,3.219,0,0,1-5.758-2.882l5.638-11.265,2.078-4.155L93.854,28.3a3.22,3.22,0,0,1,5.757,2.886Zm10.433-8.18a3.152,3.152,0,0,1-.14-3.132l9.947-19.879a3.219,3.219,0,0,1,5.755,2.886L97.281,59.489A3.2,3.2,0,0,1,94.4,61.263,3.156,3.156,0,0,1,91.665,59.736Zm13.227,8.175a3.22,3.22,0,0,1-5.761-2.878L117.512,28.3a3.22,3.22,0,0,1,5.757,2.886l-5.639,11.259-2.366,4.731L109.35,58.992Zm42.368-17.15h-26.5L119.43,48.1l.772-1.538.559-1.118h26.494Z" transform="translate(0 -10.631)" fill="#262626"/><path d="M149.325,121.032H75.482l4.14-8.272a7.359,7.359,0,0,0-13.161-6.587l-3.63,7.253A7.3,7.3,0,0,0,57,110.535c-.118,0-.228.018-.343.024a7.353,7.353,0,0,0-13.848-4.386l-2.61,5.216L31.707,94.427a7.358,7.358,0,1,0-13.161,6.585l10.018,20.021H2.07A2.07,2.07,0,0,0,0,123.1v9.462a2.071,2.071,0,0,0,2.07,2.07H28.564l-4.14,8.272a7.358,7.358,0,1,0,13.161,6.586l3.63-7.253a7.3,7.3,0,0,0,5.835,2.892c.118,0,.228-.019.343-.024a7.353,7.353,0,0,0,13.848,4.385l2.61-5.216,8.489,16.965A7.359,7.359,0,1,0,85.5,154.655l-10.02-20.021h73.843a2.07,2.07,0,0,0,2.07-2.07V123.1a2.069,2.069,0,0,0-2.07-2.07ZM22.388,96.026A3.159,3.159,0,0,1,25.126,94.5,3.2,3.2,0,0,1,28,96.273l9.876,19.737-3.6,7.195L22.248,99.159A3.158,3.158,0,0,1,22.388,96.026ZM4.14,130.495v-5.322H30.634l.739,1.477.591,1.183-1.008,2.011-.324.646Zm29.743,17.15a3.22,3.22,0,0,1-5.757-2.886L33.765,133.5l.162-.324,12.581-25.145a3.218,3.218,0,0,1,5.757,2.878L50.418,114.6l-9.947,19.879Zm10.429-8.175a3.158,3.158,0,0,1-.141-3.132l9.948-19.88a3.219,3.219,0,0,1,5.757,2.884l-9.948,19.873a3.2,3.2,0,0,1-2.878,1.774,3.158,3.158,0,0,1-2.738-1.523Zm13.227,8.175a3.22,3.22,0,0,1-5.757-2.886l1.847-3.691,9.947-19.878,6.585-13.158A3.218,3.218,0,0,1,75.92,110.9l-5.638,11.268L67.916,126.9,62,138.723Zm24.12,11.99a3.157,3.157,0,0,1-2.738,1.527,3.2,3.2,0,0,1-2.879-1.774l-9.876-19.736,3.6-7.192L81.8,156.508a3.153,3.153,0,0,1-.14,3.126Zm65.6-29.14H73.411l-.85-1.7-.481-.963,1.331-2.661h73.845Z" transform="translate(0 -30.007)" fill="#262626"/></g></g></g></svg>