<svg xmlns="http://www.w3.org/2000/svg" xmlns:xlink="http://www.w3.org/1999/xlink" width="200" height="200" viewBox="0 0 200 200"><defs><clipPath id="a"><circle cx="100" cy="100" r="100" transform="translate(127 1187)" fill="#fafafa"/></clipPath></defs><g transform="translate(-127 -1187)" clip-path="url(#a)"><g transform="translate(159.531 1219.532)"><g transform="translate(1.965 1.989)"><path d="M129.785,46.769,46.769,129.783a6.04,6.04,0,0,1-8.543,0l-3.148-3.147-.026-.026L11.634,103.191a6.039,6.039,0,0,1,0-8.543L94.649,11.633a6.039,6.039,0,0,1,8.541,0l23.355,23.353.054.054,3.186,3.185a6.043,6.043,0,0,1,0,8.544Z" transform="translate(-5.173 -5.198)" fill="#99e9df"/><path d="M141.874,58.857,58.9,141.828a6.037,6.037,0,0,1-8.538,0l-3.147-3.146,91.42-91.6.054.054,3.184,3.183A6.039,6.039,0,0,1,141.874,58.857Z" transform="translate(-17.262 -17.242)" fill="#7edcd1"/><path d="M118.247,83.1,83.1,118.247l-7.45-7.45L47.95,83.1,83.1,47.948l27.692,27.7Z" transform="translate(-17.563 -17.588)" fill="#4bd7c8"/><g transform="translate(0 0)"><path d="M0,0H11.545V32.725H0Z" transform="translate(99.739 8.163) rotate(-45)" fill="#fafafa"/><path d="M0,0H11.545V32.725H0Z" transform="translate(0 107.881) rotate(-45)" fill="#fafafa"/></g><path d="M131.528,96.409,96.411,131.526l-7.443-7.443L124.079,88.96Z" transform="translate(-30.866 -30.888)" fill="#3dbcaf"/></g><g transform="translate(0 0)"><path d="M134.421,23.733,111.267.579a1.978,1.978,0,0,0-2.8,0l-6.77,6.77-.32-.32a8.032,8.032,0,0,0-11.353.014l-5.391,5.5a1.978,1.978,0,1,0,2.824,2.769l5.377-5.482a4.067,4.067,0,0,1,5.746,0l26.592,26.592a4.062,4.062,0,0,1,0,5.746L102.635,64.7,70.3,32.365,81.126,21.536a1.978,1.978,0,1,0-2.8-2.8l-71.3,71.3a8.019,8.019,0,0,0,0,11.34l.32.32-6.77,6.77a1.978,1.978,0,0,0,0,2.8l23.154,23.154a1.978,1.978,0,0,0,2.8,0l6.77-6.77.32.32a8.026,8.026,0,0,0,11.336,0l5.662-5.628a1.977,1.977,0,1,0-2.788-2.8l-5.666,5.632a4.067,4.067,0,0,1-5.746,0L9.826,98.583a4.063,4.063,0,0,1,0-5.746L32.365,70.3,64.7,102.635,53.99,113.348a1.978,1.978,0,0,0,2.8,2.8L127.971,44.96a8.018,8.018,0,0,0,0-11.34l-.32-.32,6.77-6.77a1.978,1.978,0,0,0,0-2.8ZM10.146,104.5,30.5,124.854l-5.372,5.372L4.774,109.868ZM67.5,99.838,35.162,67.5,67.5,35.162,99.838,67.5ZM124.854,30.5,104.5,10.146l5.372-5.372,20.357,20.357Z" transform="translate(0 0)" fill="#262626"/><path d="M136.252,56.429a1.977,1.977,0,0,0,2.8,0l4.215-4.215,4.215,4.215a1.977,1.977,0,1,0,2.8-2.8l-4.215-4.215,4.215-4.215a1.977,1.977,0,1,0-2.8-2.8l-4.215,4.215-4.215-4.215a1.977,1.977,0,0,0-2.8,2.8l4.215,4.215-4.215,4.215a1.976,1.976,0,0,0,0,2.8Z" transform="translate(-44.088 -13.593)" fill="#262626"/><path d="M42.409,136.252a1.977,1.977,0,0,0,0,2.8l11.225,11.225a1.977,1.977,0,1,0,2.8-2.8L45.2,136.252a1.978,1.978,0,0,0-2.8,0Z" transform="translate(-13.593 -44.088)" fill="#262626"/><path d="M106.565,85.869a1.975,1.975,0,0,0-2.306-1.581L89.31,87.076a1.977,1.977,0,0,0-1.035,3.341l8.2,8.2-11.261,2.1a1.977,1.977,0,1,0,.725,3.886l14.95-2.787a1.977,1.977,0,0,0,1.035-3.341l-8.2-8.2,11.261-2.1a1.976,1.976,0,0,0,1.581-2.306Z" transform="translate(-27.163 -27.378)" fill="#fafafa"/><path d="M49.918,49.2a12.663,12.663,0,0,0-3.676,9.453,1.976,1.976,0,0,0,1.973,1.894l.085,0a1.977,1.977,0,0,0,1.892-2.058,8.653,8.653,0,0,1,9-9.023,1.977,1.977,0,1,0,.167-3.95A12.633,12.633,0,0,0,49.918,49.2Z" transform="translate(-15.023 -14.787)" fill="#505050"/><path d="M36.409,55.954h.05a1.977,1.977,0,0,0,1.927-2.026A15.878,15.878,0,0,1,54.642,37.635a1.977,1.977,0,0,0,.1-3.952A19.832,19.832,0,0,0,34.434,54.026,1.977,1.977,0,0,0,36.409,55.954Z" transform="translate(-11.187 -10.943)" fill="#505050"/><path d="M135.211,147.283a12.606,12.606,0,0,0,12.59-13.15,1.977,1.977,0,0,0-3.95.166,8.653,8.653,0,0,1-9,9.023,1.977,1.977,0,0,0-.167,3.95Q134.949,147.283,135.211,147.283Z" transform="translate(-43.152 -42.972)" fill="#505050"/><path d="M154.1,133.345a1.977,1.977,0,0,0-1.927,2.026,15.878,15.878,0,0,1-16.256,16.293,1.977,1.977,0,1,0-.1,3.952q.258.006.515.006a19.833,19.833,0,0,0,19.792-20.35A1.981,1.981,0,0,0,154.1,133.345Z" transform="translate(-43.507 -43.329)" fill="#505050"/></g></g></g></svg>