<svg xmlns="http://www.w3.org/2000/svg" xmlns:xlink="http://www.w3.org/1999/xlink" viewBox="0 0 350 350"><defs><clipPath id="a"><rect width="350" height="350" transform="translate(852 2237)" fill="#fff" stroke="#707070" stroke-width="1"/></clipPath></defs><g transform="translate(-852 -2237)" clip-path="url(#a)"><g transform="translate(852 2237)"><path d="M265.323,350H95.968a22.582,22.582,0,0,1-22.581-22.581V191.935a22.582,22.582,0,0,1,22.581-22.581H265.323A22.582,22.582,0,0,1,287.9,191.935V327.419A22.582,22.582,0,0,1,265.323,350Z" transform="translate(-5.645 -5.109)" fill="#99e9df"/><path d="M265.323,169.355H95.968a22.582,22.582,0,0,0-22.581,22.581V312.014a165.591,165.591,0,0,0,36.694,4.115c81.578,0,150.274-59.314,171.218-140.147A22.5,22.5,0,0,0,265.323,169.355Z" transform="translate(-5.645 -5.109)" fill="#ccf4ef"/><path d="M73.387,214.516H50.806a11.287,11.287,0,0,0-11.29,11.29v67.742a11.287,11.287,0,0,0,11.29,11.29H73.387Z" transform="translate(-5.645 -5.109)" fill="#4bd7c8"/><path d="M146.774,90.323V22.581a11.287,11.287,0,0,0-11.29-11.29H22.581a11.287,11.287,0,0,0-11.29,11.29V90.323a11.287,11.287,0,0,0,11.29,11.29H73.387l22.581,22.581V101.613h39.516A11.287,11.287,0,0,0,146.774,90.323Z" transform="translate(-5.645 -5.109)" fill="#f1f58b"/><path d="M140.44,12.481a11.16,11.16,0,0,0-4.956-1.191H22.581a11.287,11.287,0,0,0-11.29,11.29V90.323a11.24,11.24,0,0,0,.446,2.969C68.673,84.39,116.1,53.8,140.44,12.481Z" transform="translate(-5.645 -5.109)" fill="#fdffc4"/><path d="M214.516,112.9V45.161a11.287,11.287,0,0,1,11.29-11.29h112.9A11.287,11.287,0,0,1,350,45.161V112.9a11.287,11.287,0,0,1-11.29,11.29H287.9l-22.581,22.581V124.194H225.806A11.287,11.287,0,0,1,214.516,112.9Z" transform="translate(-5.645 -5.109)" fill="#6dff99"/><path d="M339.562,33.956c-.288-.023-.559-.085-.852-.085h-112.9a11.287,11.287,0,0,0-11.29,11.29V112.9a11.153,11.153,0,0,0,1.547,5.611C274.981,117.9,324.433,82.318,339.562,33.956Z" transform="translate(-5.645 -5.109)" fill="#9fffbc"/><path d="M287.9,214.516h22.581a11.287,11.287,0,0,1,11.29,11.29v67.742a11.287,11.287,0,0,1-11.29,11.29H287.9Z" transform="translate(-5.645 -5.109)" fill="#4bd7c8"/><g transform="translate(101.613 209.407)"><path d="M129.839,270.968H231.452v5.645a50.806,50.806,0,0,1-101.613,0Z" transform="translate(-107.258 -214.516)" fill="#ebf7fe"/><ellipse cx="16.935" cy="16.935" rx="16.935" ry="16.935" transform="translate(0)" fill="#ebf7fe"/><ellipse cx="16.935" cy="16.935" rx="16.935" ry="16.935" transform="translate(112.903)" fill="#ebf7fe"/></g><path d="M129.839,146.774H231.452v22.581H129.839Z" transform="translate(-5.645 -5.109)" fill="#4bd7c8"/><ellipse cx="16.935" cy="16.935" rx="16.935" ry="16.935" transform="translate(158.065 85.214)" fill="#4bd7c8"/><path d="M310.484,208.335H293.548V191.4a28.258,28.258,0,0,0-28.226-28.226H237.1V146.238a5.647,5.647,0,0,0-5.645-5.645H186.29V128.5a22.581,22.581,0,1,0-11.29,0v12.092H129.839a5.647,5.647,0,0,0-5.645,5.645v16.935H95.968A28.258,28.258,0,0,0,67.742,191.4v16.935H50.806A16.956,16.956,0,0,0,33.871,225.27v67.742a16.956,16.956,0,0,0,16.935,16.935H67.742v16.935a28.258,28.258,0,0,0,28.226,28.226H265.323a28.258,28.258,0,0,0,28.226-28.226V309.948h16.935a16.956,16.956,0,0,0,16.935-16.935V225.27A16.956,16.956,0,0,0,310.484,208.335ZM169.355,106.722a11.29,11.29,0,1,1,11.29,11.29A11.3,11.3,0,0,1,169.355,106.722ZM50.806,298.657a5.655,5.655,0,0,1-5.645-5.645V225.27a5.654,5.654,0,0,1,5.645-5.645H67.742v79.032Zm84.677-146.774h90.323v11.29H135.484Zm146.774,175a16.956,16.956,0,0,1-16.935,16.935H95.968a16.956,16.956,0,0,1-16.935-16.935V191.4a16.956,16.956,0,0,1,16.935-16.935H265.323A16.956,16.956,0,0,1,282.258,191.4Zm33.871-33.871a5.655,5.655,0,0,1-5.645,5.645H293.548V219.625h16.935a5.654,5.654,0,0,1,5.645,5.645Z" transform="translate(-5.645 -5.109)" fill="#262626"/><path d="M231.452,264.786H129.839a5.647,5.647,0,0,0-5.645,5.645v5.645a56.452,56.452,0,0,0,112.9,0v-5.645A5.647,5.647,0,0,0,231.452,264.786Zm-50.806,56.452a45.214,45.214,0,0,1-45.161-45.161h90.323A45.214,45.214,0,0,1,180.645,321.238Z" transform="translate(-5.645 -5.109)" fill="#262626"/><path d="M146.774,230.915A22.581,22.581,0,1,0,124.194,253.5,22.6,22.6,0,0,0,146.774,230.915Zm-33.871,0a11.29,11.29,0,1,1,11.29,11.29A11.3,11.3,0,0,1,112.9,230.915Z" transform="translate(-5.645 -5.109)" fill="#262626"/><path d="M237.1,208.335a22.581,22.581,0,1,0,22.581,22.581A22.6,22.6,0,0,0,237.1,208.335Zm0,33.871a11.29,11.29,0,1,1,11.29-11.29A11.3,11.3,0,0,1,237.1,242.206Z" transform="translate(-5.645 -5.109)" fill="#262626"/><path d="M91.977,127.648a5.644,5.644,0,0,0,9.636-3.991V106.722h33.871a16.956,16.956,0,0,0,16.935-16.935V22.044A16.956,16.956,0,0,0,135.484,5.109H22.581A16.956,16.956,0,0,0,5.645,22.044V89.786a16.956,16.956,0,0,0,16.935,16.935H71.05ZM16.935,89.786V22.044A5.654,5.654,0,0,1,22.581,16.4h112.9a5.654,5.654,0,0,1,5.645,5.645V89.786a5.654,5.654,0,0,1-5.645,5.645H95.968a5.647,5.647,0,0,0-5.645,5.645v8.953L77.378,97.085a5.64,5.64,0,0,0-3.991-1.654H22.581a5.651,5.651,0,0,1-5.645-5.645Z" transform="translate(-5.645 -5.109)" fill="#262626"/><path d="M338.71,27.69h-112.9a16.956,16.956,0,0,0-16.935,16.935v67.742A16.956,16.956,0,0,0,225.806,129.3h33.871v16.935a5.644,5.644,0,0,0,9.636,3.991L290.24,129.3H338.71a16.956,16.956,0,0,0,16.935-16.935V44.625A16.956,16.956,0,0,0,338.71,27.69Zm5.645,84.677a5.654,5.654,0,0,1-5.645,5.645H287.9a5.63,5.63,0,0,0-3.991,1.654L270.968,132.61v-8.953a5.647,5.647,0,0,0-5.645-5.645H225.806a5.654,5.654,0,0,1-5.645-5.645V44.625a5.654,5.654,0,0,1,5.645-5.645h112.9a5.654,5.654,0,0,1,5.645,5.645Z" transform="translate(-5.645 -5.109)" fill="#262626"/><path d="M28.226,27.69H129.839V38.98H28.226Z" transform="translate(-5.645 -5.109)" fill="#262626"/><path d="M28.226,72.851H129.839v11.29H28.226Z" transform="translate(-5.645 -5.109)" fill="#262626"/><path d="M39.516,50.27h79.032V61.56H39.516Z" transform="translate(-5.645 -5.109)" fill="#262626"/><path d="M231.452,50.27H333.064V61.56H231.452Z" transform="translate(-5.645 -5.109)" fill="#262626"/><path d="M231.452,95.431H333.064v11.29H231.452Z" transform="translate(-5.645 -5.109)" fill="#262626"/><path d="M242.742,72.851h79.032v11.29H242.742Z" transform="translate(-5.645 -5.109)" fill="#262626"/></g></g></svg>