<svg xmlns="http://www.w3.org/2000/svg" xmlns:xlink="http://www.w3.org/1999/xlink" viewBox="0 0 350 350"><defs><clipPath id="a"><rect width="350" height="350" transform="translate(855.255 116)" fill="none"/></clipPath></defs><g transform="translate(-855.255 -116)" clip-path="url(#a)"><g transform="translate(858.255 116)"><path d="M240.69,265.464H122.511a21.71,21.71,0,0,1-21.488-21.926V122.949a21.71,21.71,0,0,1,21.488-21.926H240.69a21.71,21.71,0,0,1,21.488,21.926V243.539A21.711,21.711,0,0,1,240.69,265.464Z" transform="translate(-10.048 -8.194)" fill="#4bd7c8"/><path d="M242.47,250.471H124.291a5.427,5.427,0,0,1-5.372-5.481V124.4a5.427,5.427,0,0,1,5.372-5.481H242.47a5.427,5.427,0,0,1,5.372,5.481V244.99A5.428,5.428,0,0,1,242.47,250.471Z" transform="translate(-11.828 -9.646)" fill="#99e9df"/><g transform="translate(15.771 120.237)"><ellipse cx="10.742" cy="10.961" rx="10.742" ry="10.961" fill="#4bd7c8"/><ellipse cx="10.742" cy="10.961" rx="10.742" ry="10.961" transform="translate(290.08 87.702)" fill="#4bd7c8"/></g><g transform="translate(5.027 70.909)"><ellipse cx="10.742" cy="10.961" rx="10.742" ry="10.961" transform="translate(0 186.359)" fill="#99e9df"/><ellipse cx="10.742" cy="10.961" rx="10.742" ry="10.961" transform="translate(311.566)" fill="#99e9df"/></g><g transform="translate(117.835 16.093)"><ellipse cx="10.742" cy="10.961" rx="10.742" ry="10.961" transform="translate(85.95)" fill="#4bd7c8"/><ellipse cx="10.742" cy="10.961" rx="10.742" ry="10.961" transform="translate(0 295.994)" fill="#4bd7c8"/></g><g transform="translate(69.492 5.13)"><ellipse cx="10.742" cy="10.961" rx="10.742" ry="10.961" fill="#99e9df"/><ellipse cx="10.742" cy="10.961" rx="10.742" ry="10.961" transform="translate(182.636 317.918)" fill="#99e9df"/></g><path d="M185.16,232.329a5.326,5.326,0,0,1,4.008,1.83,18.709,18.709,0,0,0,14.122,6.316c9.4,0,17.3-6.715,17.973-15.285a5.5,5.5,0,0,1,2.649-4.293,19.037,19.037,0,0,0,9.595-16.051,18.083,18.083,0,0,0-5.293-12.587,5.563,5.563,0,0,1,0-7.714,18.083,18.083,0,0,0,5.293-12.587c0-8.278-5.923-15.574-14.736-18.157a5.5,5.5,0,0,1-3.751-6.5,12.447,12.447,0,0,0,.357-2.749c0-7.556-6.778-13.7-15.108-13.7a15.819,15.819,0,0,0-11.3,4.633,5.455,5.455,0,0,1-7.617,0,15.816,15.816,0,0,0-11.3-4.633c-8.33,0-15.108,6.148-15.108,13.7a12.978,12.978,0,0,0,.289,2.7,5.49,5.49,0,0,1-3.761,6.447c-8.766,2.577-14.657,9.914-14.657,18.258a17.62,17.62,0,0,0,4.066,11.134,5.571,5.571,0,0,1,.131,6.8,20.472,20.472,0,0,0-4.2,12.218,21.435,21.435,0,0,0,9.715,17.536,5.516,5.516,0,0,1,2.392,4.515c.074,9,8.2,16.318,18.109,16.318a18.709,18.709,0,0,0,14.122-6.316A5.32,5.32,0,0,1,185.16,232.329Z" transform="translate(-13.608 -10.613)" fill="#ccf4ef"/><path d="M345.2,169.922H264.276V158.254h21.833a5.129,5.129,0,0,0,0-10.257H264.276V136.328h15.158a20.791,20.791,0,0,0,14.949-6.318l33.055-33.728a15.539,15.539,0,0,0,18.169-3.035,16.323,16.323,0,0,0,0-22.756,15.548,15.548,0,0,0-22.3,0,16.359,16.359,0,0,0-2.975,18.54l-33.055,33.728a10.908,10.908,0,0,1-7.842,3.314H264.275V114.756c0-14.917-11.894-27.053-26.513-27.053H226.673V42.3a15.772,15.772,0,1,0-10.052,0V87.7H205.186V65.423a5.027,5.027,0,1,0-10.052,0V87.7H183.7V5.129a5.027,5.027,0,1,0-10.052,0V87.7H162.212V65.423a5.027,5.027,0,1,0-10.052,0V87.7H140.725V72.235a21.653,21.653,0,0,0-6.193-15.254l-33.066-33.74A16.355,16.355,0,0,0,98.5,4.714a15.566,15.566,0,0,0-22.3,0,16.343,16.343,0,0,0,0,22.756,15.517,15.517,0,0,0,18.157,3.023l33.066,33.741a11.356,11.356,0,0,1,3.248,8V87.7H119.584a26.122,26.122,0,0,0-6.626.853,5.138,5.138,0,0,0-3.615,6.245,5.018,5.018,0,0,0,6.12,3.688,16.24,16.24,0,0,1,4.12-.529H237.762a16.65,16.65,0,0,1,16.461,16.8V235.344a17.219,17.219,0,0,1-.517,4.2,5.138,5.138,0,0,0,3.616,6.244,4.938,4.938,0,0,0,1.255.163,5.046,5.046,0,0,0,4.864-3.853,27.665,27.665,0,0,0,.834-6.754V224.028h44.492a16.094,16.094,0,1,0,0-10.257H264.275V202.1h21.833a5.129,5.129,0,0,0,0-10.257H264.275V180.179H345.2a5.129,5.129,0,0,0,0-10.257ZM330.412,77.743a5.637,5.637,0,0,1,8.086,0,5.918,5.918,0,0,1,0,8.251,5.637,5.637,0,0,1-8.086,0h0a5.918,5.918,0,0,1,0-8.251ZM221.647,21.22a5.835,5.835,0,1,1-5.717,5.834A5.783,5.783,0,0,1,221.647,21.22Zm-138.339-1a5.925,5.925,0,0,1,0-8.251,5.644,5.644,0,0,1,8.086,0,5.926,5.926,0,0,1,0,8.251h0A5.645,5.645,0,0,1,83.309,20.218Zm240.4,192.849a5.835,5.835,0,1,1-5.717,5.834A5.783,5.783,0,0,1,323.712,213.067Z" transform="translate(-7.121 -0.001)" fill="#3a3a3a"/><path d="M255.866,328.8,222.8,295.058a11.356,11.356,0,0,1-3.248-8V271.591h11.089a26.107,26.107,0,0,0,6.625-.853,5.138,5.138,0,0,0,3.615-6.245,5.018,5.018,0,0,0-6.12-3.688,16.231,16.231,0,0,1-4.119.529H112.462A16.65,16.65,0,0,1,96,244.537V123.948a17.2,17.2,0,0,1,.518-4.2,5.138,5.138,0,0,0-3.614-6.245,5.018,5.018,0,0,0-6.12,3.688,27.635,27.635,0,0,0-.836,6.76v11.315H41.457A15.825,15.825,0,0,0,26.513,124.3a16.094,16.094,0,0,0,0,32.182A15.826,15.826,0,0,0,41.457,145.52H85.949v11.669H64.116a5.129,5.129,0,0,0,0,10.257H85.949v11.668H5.026a5.129,5.129,0,0,0,0,10.257H85.949v11.668H64.116a5.129,5.129,0,0,0,0,10.257H85.949v11.669H70.791a20.791,20.791,0,0,0-14.949,6.318L22.787,263.011a15.539,15.539,0,0,0-18.169,3.035,16.325,16.325,0,0,0,0,22.756,15.549,15.549,0,0,0,22.3,0,16.359,16.359,0,0,0,2.975-18.54l33.055-33.728a10.908,10.908,0,0,1,7.842-3.314H85.951v11.315c0,14.917,11.894,27.053,26.513,27.053h11.089v45.4a15.772,15.772,0,1,0,10.052,0v-45.4H145.04v22.278a5.027,5.027,0,1,0,10.052,0V271.589h11.434v82.574a5.027,5.027,0,1,0,10.052,0V271.591h11.435v22.278a5.027,5.027,0,1,0,10.052,0V271.591H209.5v15.467a21.653,21.653,0,0,0,6.193,15.254l33.066,33.74a16.354,16.354,0,0,0,2.963,18.527,15.566,15.566,0,0,0,22.3,0,16.342,16.342,0,0,0,0-22.756A15.552,15.552,0,0,0,255.866,328.8ZM26.513,146.226a5.835,5.835,0,1,1,5.718-5.834A5.783,5.783,0,0,1,26.513,146.226Zm-6.7,135.324a5.637,5.637,0,0,1-8.086,0,5.918,5.918,0,0,1,0-8.251,5.637,5.637,0,0,1,8.086,0h0a5.918,5.918,0,0,1,0,8.251Zm108.765,56.522a5.835,5.835,0,1,1,5.717-5.834A5.783,5.783,0,0,1,128.577,338.072Zm138.339,9.254a5.644,5.644,0,0,1-8.086,0,5.925,5.925,0,0,1,0-8.251,5.644,5.644,0,0,1,8.086,0A5.926,5.926,0,0,1,266.916,347.326Z" transform="translate(0 -9.193)" fill="#3a3a3a"/><path d="M143.32,223.567v.012c0,11.9,10.388,21.573,23.156,21.573a23.772,23.772,0,0,0,18.13-8.176,23.772,23.772,0,0,0,18.13,8.176c12.288,0,22.366-8.964,23.107-20.241A24.045,24.045,0,0,0,237.977,204.4a23.341,23.341,0,0,0-6.989-16.444,23.345,23.345,0,0,0,6.989-16.444c0-10.968-7.862-20.259-18.625-23.277a17.845,17.845,0,0,0,.5-4.129c0-10.384-9.033-18.832-20.134-18.832a20.7,20.7,0,0,0-15.108,6.4,20.7,20.7,0,0,0-15.108-6.4c-11.1,0-20.134,8.448-20.134,18.832a17.846,17.846,0,0,0,.5,4.129c-10.763,3.018-18.625,12.309-18.625,23.277a22.8,22.8,0,0,0,5.293,14.594,25.689,25.689,0,0,0-5.293,15.553A26.535,26.535,0,0,0,143.32,223.567Zm13.965-66.114c.045,0,.09.008.134.008a4.945,4.945,0,0,0,3.245-1.214,5.2,5.2,0,0,0,1.02-6.613c-.038-.063-.073-.127-.113-.188-.021-.031-.046-.06-.067-.091-.078-.111-.157-.221-.244-.326l-.007-.01a7.7,7.7,0,0,1-1.839-4.918c0-4.728,4.523-8.575,10.082-8.575s10.082,3.847,10.082,8.575a5.027,5.027,0,1,0,10.052,0c0-4.728,4.523-8.575,10.082-8.575s10.082,3.847,10.082,8.575a7.331,7.331,0,0,1-.754,3.227,27.459,27.459,0,0,0-8.249,2.11,5.167,5.167,0,0,0-2.678,6.718,4.99,4.99,0,0,0,6.584,2.733,17.831,17.831,0,0,1,6.948-1.435c.048,0,.1.006.144.006s.089-.006.134-.008c8.834.059,16,6.339,16,14.053,0,4.849-2.891,9.3-7.734,11.909a5.177,5.177,0,0,0,0,9.071c4.843,2.608,7.734,7.06,7.734,11.909a13.23,13.23,0,0,1-4.428,9.642,22.663,22.663,0,0,0-13.213-10.858,5.009,5.009,0,0,0-6.3,3.355,5.149,5.149,0,0,0,3.288,6.43c5.124,1.643,8.567,5.909,8.567,10.616,0,6.24-5.878,11.316-13.1,11.316s-13.1-5.076-13.1-11.316V190.692c0-6.24,5.878-11.315,13.1-11.315a5.129,5.129,0,0,0,0-10.257,24.209,24.209,0,0,0-13.1,3.8v-6.551a5.027,5.027,0,1,0-10.052,0V194.84a23.722,23.722,0,0,0-5.553-2.623,5.007,5.007,0,0,0-6.3,3.355,5.149,5.149,0,0,0,3.288,6.43c5.124,1.643,8.566,5.909,8.566,10.615v10.962c0,6.24-5.878,11.316-13.1,11.316s-13.1-5.076-13.1-11.316a10.44,10.44,0,0,1,3.128-7.32,5.2,5.2,0,0,0,.021-7.253,4.955,4.955,0,0,0-7.107-.022,21.749,21.749,0,0,0-3.1,3.976,15.786,15.786,0,0,1-5.027-11.306c0-7.6,5.844-14.273,14.212-16.232a5.132,5.132,0,0,0,3.775-6.145,5.024,5.024,0,0,0-6.022-3.852,30.277,30.277,0,0,0-9.22,3.833,12.531,12.531,0,0,1-2.743-7.751C141.285,163.792,148.451,157.513,157.286,157.453Z" transform="translate(-13.053 -10.161)" fill="#3a3a3a"/></g></g></svg>