<svg xmlns="http://www.w3.org/2000/svg" xmlns:xlink="http://www.w3.org/1999/xlink" viewBox="0 0 30 30"><defs><clipPath id="a"><rect width="30" height="30" transform="translate(379 2252)" fill="#fff"/></clipPath></defs><g transform="translate(-379 -2252)" clip-path="url(#a)"><g transform="translate(379 2252)"><path d="M13.132,17.81,18.011,15l-4.879-2.81Zm0,0" fill="#4bd7c8"/><path d="M15,0A15,15,0,1,0,30,15,15,15,0,0,0,15,0Zm9.373,15.015a24.757,24.757,0,0,1-.386,4.509,2.349,2.349,0,0,1-1.652,1.652A57.012,57.012,0,0,1,15,21.563a54.972,54.972,0,0,1-7.335-.4,2.349,2.349,0,0,1-1.652-1.652A24.648,24.648,0,0,1,5.627,15a24.741,24.741,0,0,1,.386-4.509A2.4,2.4,0,0,1,7.665,8.824,57.012,57.012,0,0,1,15,8.438a54.855,54.855,0,0,1,7.335.4,2.349,2.349,0,0,1,1.652,1.652,23.494,23.494,0,0,1,.386,4.524Zm0,0" fill="#4bd7c8"/></g></g></svg>