<svg xmlns="http://www.w3.org/2000/svg" xmlns:xlink="http://www.w3.org/1999/xlink" viewBox="0 0 30 30"><defs><clipPath id="a"><rect width="30" height="30" transform="translate(269 2252)" fill="#fff"/></clipPath></defs><g transform="translate(-269 -2252)" clip-path="url(#a)"><g transform="translate(269 2252)"><path d="M17.419,29.8q-.187.031-.376.056Q17.231,29.835,17.419,29.8Zm0,0"/><path d="M17.719,29.753l-.179.031Zm0,0"/><path d="M16.707,29.9q-.219.025-.441.043Q16.488,29.928,16.707,29.9Zm0,0"/><path d="M17,29.867l-.211.026Zm0,0"/><path d="M18.127,29.672l-.158.033Zm0,0"/><path d="M19.14,29.421l-.128.035Zm0,0"/><path d="M18.834,29.5l-.139.036Zm0,0"/><path d="M18.433,29.6l-.148.033Zm0,0"/><path d="M16.261,29.947l-.237.018Zm0,0"/><path d="M30,15A15,15,0,1,0,15,30c.088,0,.176,0,.264,0V18.32H12.041V14.564h3.223V11.8c0-3.205,1.957-4.95,4.816-4.95A26.528,26.528,0,0,1,22.969,7v3.35H21c-1.555,0-1.857.739-1.857,1.824v2.392H22.86l-.485,3.756H19.14v11.1A15.008,15.008,0,0,0,30,15Zm0,0" fill="#4bd7c8"/><path d="M15.991,29.967q-.234.015-.47.023Q15.757,29.982,15.991,29.967Zm0,0"/><path d="M15.513,29.99,15.264,30Zm0,0"/></g></g></svg>