<svg xmlns="http://www.w3.org/2000/svg" xmlns:xlink="http://www.w3.org/1999/xlink" viewBox="0 0 40 40"><defs><clipPath id="a"><rect width="40" height="40" transform="translate(60 10)" fill="#fff"/></clipPath></defs><g transform="translate(-60 -10)" clip-path="url(#a)"><g transform="translate(60 10.024)"><g transform="translate(0.693 0.644)"><g transform="translate(0 2.578)"><path d="M8.931,6.921l.412,3.712-.818.7-2.339,2L4.833,14.5a11.63,11.63,0,0,1-2.6-5.1,20.892,20.892,0,0,1-.619-3.28l.9-.161L7.4,5.071l1.3-.238Z" transform="translate(-1.611 -4.833)" fill="#4bd7c8"/></g><g transform="translate(29.642 21.265)"><path d="M46.363,33.617a18.011,18.011,0,0,1-1.9,2.951l-.986-.657L39.2,33.063l-.541-.361.664-.934.7-.967,1.862-2.61,1.147.129,2.887.322,1.766.193A10.93,10.93,0,0,1,46.363,33.617Z" transform="translate(-38.663 -28.192)" fill="#4bd7c8"/></g><g transform="translate(11.599 11.373)"><path d="M32.219,17.986a3.785,3.785,0,0,1,.664-2.159,3.983,3.983,0,0,1-1.308.226h-11.6A3.455,3.455,0,0,1,19.338,16l-.006.058L16.11,18.631l.6,3.157,1.244,6.528.735,3.847H34.152a2.539,2.539,0,0,1,.541-1.572l-.541-.361.664-.934L34.9,28.3l.541-6.45.006-.058A3.865,3.865,0,0,1,32.219,17.986Z" transform="translate(-16.11 -15.828)" fill="#99e9df"/></g><g transform="translate(9.021 9.717)"><path d="M18.694,15.581l-.006.058-3.222,2.578.6,3.157a3.865,3.865,0,0,1-3.177-3.744v-.058a3.877,3.877,0,0,1,3.087-3.789l.045-.026a3.83,3.83,0,0,0,2.674,1.824Z" transform="translate(-12.888 -13.758)" fill="#4bd7c8"/></g><g transform="translate(27.708 9.666)"><path d="M36.91,15.394a3.9,3.9,0,0,1,1.9-1.476,3.785,3.785,0,0,1,1.3-.226,3.867,3.867,0,0,1,.863,7.636,3.814,3.814,0,0,1-.863.1,3.455,3.455,0,0,1-.638-.058,3.865,3.865,0,0,1-3.228-3.808A3.785,3.785,0,0,1,36.91,15.4S36.9,15.4,36.91,15.394Z" transform="translate(-36.246 -13.693)" fill="#4bd7c8"/></g><g transform="translate(29.642 26.136)"><path d="M38.663,35.853a2.539,2.539,0,0,1,.541-1.572l4.272,2.848a2.575,2.575,0,0,1-4.814-1.276Z" transform="translate(-38.663 -34.281)" fill="#e6e9ed"/></g><g transform="translate(32.438 15.878)"><path d="M44.369,21.458,46.618,27.3l-2.887-.322-1.572-4.092A3.9,3.9,0,0,0,44.369,21.458Z" transform="translate(-42.159 -21.458)" fill="#e6e9ed"/></g><g transform="translate(4.575 9.079)"><path d="M12.723,14.88a3.832,3.832,0,0,0-.947,2.532v.058h-.032L7.33,14.964l2.339-2Z" transform="translate(-7.33 -12.96)" fill="#e6e9ed"/></g><g transform="translate(0.644)"><path d="M7.571,4.188c0,.077-.006.161-.013.238l-4.884.889a2.543,2.543,0,0,1-.258-1.128,2.578,2.578,0,1,1,5.155,0Z" transform="translate(-2.416 -1.611)" fill="#e6e9ed"/></g><g transform="translate(11.599 1.289)"><path d="M35.441,7.088V9.666a3.879,3.879,0,0,1-.657,2.159,3.9,3.9,0,0,0-1.9,1.476c-.006.006,0,.006,0,.006a3.983,3.983,0,0,1-1.308.226h-11.6a3.455,3.455,0,0,1-.638-.058,3.83,3.83,0,0,1-2.674-1.824,3.783,3.783,0,0,1-.554-1.985V7.088a3.869,3.869,0,0,1,3.866-3.866h11.6A3.869,3.869,0,0,1,35.441,7.088Z" transform="translate(-16.11 -3.222)" fill="#ccf4ef"/></g><g transform="translate(14.821 27.708)"><path d="M33.166,36.246a7.088,7.088,0,1,1-11.882,0Z" transform="translate(-20.137 -36.246)" fill="#4bd7c8"/></g><g transform="translate(19.331 28.997)"><circle cx="2.578" cy="2.578" r="2.578" fill="#ccd1d9"/></g><g transform="translate(23.198 3.866)"><circle cx="1.933" cy="1.933" r="1.933" fill="#4bd7c8"/></g><g transform="translate(16.754 14.821)"><path d="M29,20.137a1.293,1.293,0,0,1,1.289,1.289A1.3,1.3,0,0,1,29,22.714H23.842a1.293,1.293,0,0,1-1.289-1.289,1.3,1.3,0,0,1,1.289-1.289Z" transform="translate(-22.553 -20.137)" fill="#e6e9ed"/></g><g transform="translate(15.465 3.866)"><circle cx="1.933" cy="1.933" r="1.933" fill="#4bd7c8"/></g></g><path d="M38.794,22.565,36.81,17.406a4.5,4.5,0,0,0-3.8-6.935c-.064,0-.128.007-.191.01a4.507,4.507,0,0,0,.191-1.3V6.6A4.516,4.516,0,0,0,28.5,2.094H16.9A4.516,4.516,0,0,0,12.392,6.6V9.182a4.475,4.475,0,0,0,.3,1.6,4.488,4.488,0,0,0-1.372.85L9.436,10.447l.412-.353L9.09,3.27,7.828,3.5A3.216,3.216,0,1,0,1.5,4.649l-.757.138L.8,5.372c.021.24.541,5.911,3.408,8.777l.422.422L6.09,13.316l3.752,2.137a4.494,4.494,0,0,0,3.243,3.864l2,10.485h1.236a7.733,7.733,0,1,0,14.06,0H30.5a3.215,3.215,0,0,0,5.546,1.508l.958.639.371-.444c.138-.166,3.371-4.093,3.371-8.146v-.577ZM13.742,15.887l2.767-2.213c.13.012.261.02.394.02H28.5c.066,0,.13-.015.195-.017a4.505,4.505,0,0,0,2.988,5.616l-.446,5.355H15.411Zm18.842,8.122.376-4.519.052,0c.151,0,.3-.008.448-.023l1.006,2.614L34,22.032Zm3.324-1.764-1.188-3.09a4.489,4.489,0,0,0,1.124-.667l1.507,3.917Zm.326-7.263a3.222,3.222,0,1,1-3.222-3.222A3.226,3.226,0,0,1,36.234,14.982ZM13.681,6.6A3.226,3.226,0,0,1,16.9,3.383H28.5A3.226,3.226,0,0,1,31.724,6.6V9.182a3.2,3.2,0,0,1-.459,1.641,4.525,4.525,0,0,0-1.838,1.433,3.2,3.2,0,0,1-.925.148H16.9a3.226,3.226,0,0,1-3.222-3.222ZM2.727,4.027a1.929,1.929,0,0,1,3.836-.3L2.77,4.419a1.924,1.924,0,0,1-.044-.391Zm.115,4.966L5.764,7.91,5.316,6.7,2.507,7.742c-.182-.777-.294-1.453-.356-1.9L7.963,4.785l.1.9-1.609.6L6.9,7.488,8.208,7l.284,2.555L4.716,12.8a11.274,11.274,0,0,1-1.875-3.8Zm5.57,2.333,2.079,1.307a4.5,4.5,0,0,0-.559,1.388l-2.8-1.6ZM11.1,14.982a3.225,3.225,0,0,1,2.229-3.054,4.541,4.541,0,0,0,1.639,1.325L12.33,15.366l.466,2.447A3.21,3.21,0,0,1,11.1,14.982Zm4.553,10.954H31.131l-.01.122-.952,1.334.588.392a3.173,3.173,0,0,0-.251.729H16.148Zm14.134,7.088A6.444,6.444,0,1,1,17.783,29.8H28.911a6.413,6.413,0,0,1,.88,3.222Zm3.866-1.933a1.927,1.927,0,0,1-1.817-2.585l3.111,2.074A1.93,1.93,0,0,1,33.657,31.091ZM38.465,27.3l-2.7-1.2-.524,1.178,2.631,1.17a18.2,18.2,0,0,1-1.142,1.775L31.99,27.059l.666-.933,1.367.608.524-1.178-1.126-.5L34.606,23.4l4.825.536a10.323,10.323,0,0,1-.966,3.363Z" transform="translate(-0.745 -0.805)" fill="#262626"/><path d="M22.714,10.793a2.578,2.578,0,1,0-2.578-2.578A2.58,2.58,0,0,0,22.714,10.793Zm0-3.866a1.289,1.289,0,1,1-1.289,1.289A1.29,1.29,0,0,1,22.714,6.927Z" transform="translate(-4.623 -1.772)" fill="#262626"/><path d="M32.38,10.793A2.578,2.578,0,1,0,29.8,8.216,2.58,2.58,0,0,0,32.38,10.793Zm0-3.866a1.289,1.289,0,1,1-1.289,1.289A1.29,1.29,0,0,1,32.38,6.927Z" transform="translate(-6.557 -1.772)" fill="#262626"/><path d="M28.836,19.331H23.681a1.933,1.933,0,0,0,0,3.866h5.155a1.933,1.933,0,0,0,0-3.866Zm0,2.578H23.681a.644.644,0,0,1,0-1.289h5.155a.644.644,0,0,1,0,1.289Z" transform="translate(-4.946 -4.511)" fill="#262626"/><path d="M23.359,25.775h1.289v1.289H23.359Z" transform="translate(-5.268 -5.799)" fill="#262626"/><path d="M26.581,25.775H27.87v1.289H26.581Z" transform="translate(-5.912 -5.799)" fill="#262626"/><path d="M29.8,25.775h1.289v1.289H29.8Z" transform="translate(-6.557 -5.799)" fill="#262626"/><path d="M24.97,40.274a3.222,3.222,0,1,0,3.222-3.222A3.226,3.226,0,0,0,24.97,40.274Zm3.222-1.933a1.933,1.933,0,1,1-1.933,1.933A1.936,1.936,0,0,1,28.192,38.341Z" transform="translate(-5.59 -8.055)" fill="#262626"/></g></g></svg>