<svg xmlns="http://www.w3.org/2000/svg" xmlns:xlink="http://www.w3.org/1999/xlink" viewBox="0 0 200 200"><defs><clipPath id="a"><circle cx="100" cy="100" r="100" transform="translate(127 1187)" fill="#fafafa"/></clipPath></defs><g transform="translate(-127 -1187)" clip-path="url(#a)"><g transform="translate(159.311 1219.311)"><path d="M181.226,3.907A115.833,115.833,0,0,1,174.8,34.886L150.247,10.334A115.833,115.833,0,0,1,181.226,3.907Z" transform="translate(-48.935 -1.261)" fill="#4bd7c8"/><path d="M124.584,13.4,149.135,37.95c-3.846,10.892-9.985,22.843-19.756,32.614A103.394,103.394,0,0,1,98.218,91.772L70.762,64.316A104.993,104.993,0,0,1,84.937,40.995a98.21,98.21,0,0,1,7.033-7.84C101.741,23.384,113.692,17.245,124.584,13.4Z" transform="translate(-23.273 -4.326)" fill="#fafafa"/><path d="M143.189,46.624a10.581,10.581,0,1,1-14.963,0A10.581,10.581,0,0,1,143.189,46.624Z" transform="translate(-40.715 -14.163)" fill="#99e9df"/><g transform="translate(27.78 32.198)"><path d="M133.793,108.654c13.633,20.449-11.887,33.666-26.183,33.666a19.654,19.654,0,0,0,5.3-17.148l-2.791-2.791a104.993,104.993,0,0,0,23.321-14.175Z" transform="translate(-62.721 -67.364)" fill="#4bd7c8"/><path d="M65.263,107.966l-.429-.429a5.128,5.128,0,0,1-1.442-4.838,92.172,92.172,0,0,1,4.944-14.106L95.793,116.05a92.173,92.173,0,0,1-14.106,4.944,5.128,5.128,0,0,1-4.838-1.442l-.428-.428Z" transform="translate(-48.399 -61.031)" fill="#4bd7c8"/><path d="M74.983,51.773l.447.357A104.993,104.993,0,0,0,61.256,75.452l-2.791-2.791a19.654,19.654,0,0,0-17.148,5.3C41.317,63.66,54.534,38.141,74.983,51.773Z" transform="translate(-41.317 -47.889)" fill="#4bd7c8"/></g><path d="M58.182,117.2,69.339,128.36a20.846,20.846,0,0,1-5.578,9.385c-6.2,6.2-22.443,7.48-22.443,7.48s1.283-16.246,7.48-22.443A20.846,20.846,0,0,1,58.182,117.2Z" transform="translate(-13.451 -38.156)" fill="#ccf4ef"/><path d="M102.792,98.429a2.646,2.646,0,1,0-3.743,0A2.647,2.647,0,0,0,102.792,98.429Z" transform="translate(-31.948 -30.53)" fill="#505050"/><path d="M143.9,62.2a13.226,13.226,0,1,0-18.7,0A13.219,13.219,0,0,0,143.9,62.2ZM128.936,47.232a7.935,7.935,0,1,1,0,11.223A7.932,7.932,0,0,1,128.936,47.232Z" transform="translate(-39.494 -12.896)" fill="#505050"/><path d="M39.141,64.939a2.644,2.644,0,0,0,2.883-.573,16.839,16.839,0,0,1,14-4.7l.926.926A93.034,93.034,0,0,0,52.585,73.44a7.487,7.487,0,0,0,.32,4.594,25.049,25.049,0,0,0-7.143,5.036c-6.809,6.809-8.191,23.4-8.247,24.105a2.645,2.645,0,0,0,2.636,2.853q.1,0,.208-.008c.7-.055,17.3-1.438,24.106-8.247A25.049,25.049,0,0,0,69.5,94.633a7.47,7.47,0,0,0,4.6.318,93.046,93.046,0,0,0,12.845-4.368l.926.926a16.839,16.839,0,0,1-4.7,14,2.645,2.645,0,0,0,1.87,4.515c10.469,0,25.106-6.235,30.5-16.307,2.341-4.374,3.935-11.294-1.148-19.93,2.155-1.821,4.23-3.726,6.188-5.684,8.734-8.734,15.59-20.04,20.38-33.6A117.5,117.5,0,0,0,147.535,2.74,2.645,2.645,0,0,0,144.8,0a117.5,117.5,0,0,0-31.765,6.577c-13.564,4.789-24.87,11.646-33.6,20.38-1.957,1.957-3.862,4.032-5.684,6.188C65.109,28.064,58.189,29.657,53.814,32,43.742,37.389,37.507,52.026,37.507,62.5A2.647,2.647,0,0,0,39.141,64.939Zm21.585,33.1c-3.637,3.637-12.169,5.555-17.561,6.338.783-5.393,2.7-13.924,6.339-17.561a19.062,19.062,0,0,1,6.772-4.451l8.9,8.9A19.058,19.058,0,0,1,60.726,98.034Zm12.059-8.207a2.482,2.482,0,0,1-2.311-.75L58.462,77.065a2.484,2.484,0,0,1-.752-2.312,85.888,85.888,0,0,1,3.3-10.1L82.886,86.525A85.828,85.828,0,0,1,72.785,89.827Zm38.09,1.4c-3.466,6.475-12.191,11.248-20.143,12.89,2.535-4.771,3.094-10.844,2.168-14.527a2.762,2.762,0,0,0-.8-1.336A106.987,106.987,0,0,0,110.21,77.14C112.963,82.169,113.19,86.9,110.875,91.226Zm26.429-62.5L118.815,10.234a118.918,118.918,0,0,1,23.209-4.721A118.937,118.937,0,0,1,137.3,28.722ZM83.17,30.7c7.836-7.836,17.949-14.073,30.067-18.562L135.4,34.3c-4.489,12.117-10.725,22.23-18.562,30.067a96.005,96.005,0,0,1-7.628,6.843A101.623,101.623,0,0,1,88.124,84.282L63.255,59.414A101.607,101.607,0,0,1,76.326,38.328,95.988,95.988,0,0,1,83.17,30.7ZM56.311,36.663c4.327-2.315,9.057-2.089,14.085.664A106.948,106.948,0,0,0,59.284,55.442a2.789,2.789,0,0,0-1.4-.822,22.607,22.607,0,0,0-14.463,2.186C45.064,48.854,49.836,40.128,56.311,36.663Z" transform="translate(-12.536 0)" fill="#262626"/><path d="M80.7,172.2l7.48-7.483a2.645,2.645,0,1,0-3.741-3.74l-7.48,7.483A2.645,2.645,0,1,0,80.7,172.2Z" transform="translate(-24.775 -52.151)" fill="#262626"/><path d="M25.449,116.957l7.483-7.48a2.645,2.645,0,1,0-3.74-3.741l-7.483,7.48a2.645,2.645,0,1,0,3.74,3.741Z" transform="translate(-6.759 -34.136)" fill="#262626"/><path d="M51.838,166.505,33.92,184.42a2.645,2.645,0,1,0,3.74,3.741l17.918-17.915a2.645,2.645,0,0,0-3.74-3.741Z" transform="translate(-10.786 -53.936)" fill="#262626"/><path d="M20.588,166.505,2.67,184.42a2.645,2.645,0,1,0,3.74,3.741l17.918-17.915a2.645,2.645,0,0,0-3.74-3.741Z" transform="translate(-0.612 -53.936)" fill="#262626"/><path d="M4.516,155.015,22.431,137.1a2.645,2.645,0,1,0-3.741-3.741L.775,151.274a2.645,2.645,0,1,0,3.741,3.741Z" transform="translate(0 -43.148)" fill="#262626"/><path d="M113.84,85.6l3.74-3.74a2.645,2.645,0,0,0-3.741-3.741l-3.74,3.74A2.645,2.645,0,0,0,113.84,85.6Z" transform="translate(-35.546 -25.147)" fill="#505050"/></g></g></svg>