<svg xmlns="http://www.w3.org/2000/svg" xmlns:xlink="http://www.w3.org/1999/xlink" viewBox="0 0 252 252"><defs><clipPath id="a"><rect width="252" height="252" transform="translate(200 2335)" fill="#fff" stroke="#707070" stroke-width="1"/></clipPath></defs><g transform="translate(-200 -2335)" clip-path="url(#a)"><g transform="translate(208.147 2334.541)"><path d="M240.795,218.033l16.26,5.42A18.453,18.453,0,0,1,268.5,247.438L258.008,275.41H229.319V218.033Z" transform="translate(-143.252 -109.016)" fill="#4bd7c8"/><path d="M312.7,114.754A22.951,22.951,0,0,0,289.754,137.7v91.8H350V114.754Z" transform="translate(-284.015 -109.016)" fill="#2f4054"/><path d="M289.754,114.754H266.8V229.508h60.246V114.754Z" transform="translate(-238.113 -109.016)" fill="#262d43"/><path d="M321.311,218.033H263.934v22.951h57.377Z" transform="translate(-229.507 -109.016)" fill="#c6d6e2"/><path d="M309.836,143.443v45.9a28.689,28.689,0,0,1-28.689,28.689H252.459v-3.361a19.59,19.59,0,0,0-5.738-13.852,19.59,19.59,0,0,1-5.738-13.852V143.443Z" transform="translate(-195.08 -109.016)" fill="#f6d0b1"/><path d="M327.049,114.754H304.1v40.164h22.951Z" transform="translate(-275.408 -109.016)" fill="#4bd7c8"/><path d="M218.033,114.754V149.18h36.456a22.858,22.858,0,0,0,15.183,5.738h11.475A22.953,22.953,0,0,0,304.1,131.97V114.754Z" transform="translate(-166.392 -109.016)" fill="#2f4054"/><path d="M281.147,166.393H252.459a11.475,11.475,0,1,0,0,22.951h28.689Z" transform="translate(-166.392 -109.016)" fill="#4bd7c8"/><path d="M281.564,218.033v22.951h39.748a40.027,40.027,0,0,0-11.669-22.951Z" transform="translate(-247.136 -109.016)" fill="#a8b4be"/><path d="M240.984,240.984v28.689l2.632,14.473,8.843,48.641h63.115l22.951-57.377-22.951-57.377V221.4a19.61,19.61,0,0,1-17.636,19.494c-.645.057-1.3.093-1.951.093Z" transform="translate(-223.769 -109.016)" fill="#ccf4ef"/><path d="M281.147,240.984v28.689l2.632,14.473A40.174,40.174,0,0,0,338.1,240.89c-.645.057-1.3.093-1.951.093Z" transform="translate(-263.932 -109.016)" fill="#99e9df"/><circle cx="28.689" cy="28.689" r="28.689" transform="translate(5.739 109.016)" fill="#4bd7c8"/><path d="M312.606,304.1l17.213-11.475-23.489-46.978a10.264,10.264,0,1,0-18.361,9.18Z" transform="translate(-260.965 -109.016)" fill="#c6d6e2"/><path d="M292.623,292.623H235.246v22.951h57.377Z" transform="translate(-172.13 -109.016)" fill="#c6d6e2"/><path d="M154.918,292.623l11.475-3.823,22.951-7.653,9.833-11.475.574-.66.014-.029,6.491-7.567,17.514-20.433-17.213-11.475-34.426,34.426Z" transform="translate(-22.949 -109.016)" fill="#c6d6e2"/><path d="M172.432,292.623l11.475-3.823,22.951-7.653,9.833-11.475.574-.66.014-.029,6.491-7.567-18.963-12.644-15.162,15.162Z" transform="translate(-40.464 -109.016)" fill="#a8b4be"/><path d="M189.344,281.147h28.689l3.823-5.738,7.653-11.475L212.3,252.459,193.934,275.41Z" transform="translate(-63.113 -109.016)" fill="#8ccee9"/><path d="M200.82,281.147H160.656V304.1H200.82Z" transform="translate(-5.736 -109.016)" fill="#8ccee9"/><path d="M200.82,304.1H160.656v22.951H200.82Z" transform="translate(-5.736 -109.016)" fill="#ccf4ef"/><path d="M235.246,281.147H200.82v45.9h34.426Z" transform="translate(-80.326 -109.016)" fill="#4bd7c8"/><g transform="translate(126.231 74.59)"><path d="M189.344,281.147h28.689l3.823-5.738,7.653-11.475L212.3,252.459,193.934,275.41Z" transform="translate(-189.344 -183.607)" fill="#ccf4ef"/><path d="M200.82,281.147H160.656V304.1H200.82Z" transform="translate(-131.967 -183.607)" fill="#ccf4ef"/><path d="M172.131,183.607H149.18v22.951h22.951Z" transform="translate(-91.803 -183.607)" fill="#ccf4ef"/><path d="M195.082,206.557H172.131v22.951h22.951Z" transform="translate(-137.705 -183.607)" fill="#ccf4ef"/></g><path d="M137.7,229.508l22.951,17.213,11.475-11.475V206.557H137.7Z" transform="translate(45.903 -109.016)" fill="#4bd7c8"/><path d="M0,24.339H24.339V0H0Z" transform="translate(218.073 126.218) rotate(-135)" fill="#ccf4ef"/><circle cx="11.475" cy="11.475" r="11.475" transform="translate(51.641 183.607)" fill="#4bd7c8"/><circle cx="17.213" cy="17.213" r="17.213" transform="translate(22.952 40.164)" fill="#4bd7c8"/><rect width="86.066" height="22.951" rx="11.475" transform="translate(17.215 223.77)" fill="#4bd7c8"/><path d="M154.919,229.508V137.7a28.721,28.721,0,0,1,28.689-28.689H292.624a5.738,5.738,0,0,1,5.738,5.737v17.213a28.738,28.738,0,0,1-22.951,28.111v26.889L290.944,202.5a5.739,5.739,0,0,1,1.074,6.624L286.281,220.6l-10.264-5.133,3.888-7.776-6.57-6.57a34.552,34.552,0,0,1-10.094,14.458l7.294,2.431a24.189,24.189,0,0,1,15,31.443L275.8,275.41h2.59l21.228-26.535a5.737,5.737,0,0,1,7.663-1.19L324.5,259.16a5.737,5.737,0,0,1,1.591,7.957l-5.528,8.293H350a5.738,5.738,0,0,1,5.738,5.737v45.9A5.738,5.738,0,0,1,350,332.787h-74.59a5.738,5.738,0,0,1-5.738-5.737v-5.738H257.492l-3.033,7.582a17.209,17.209,0,0,1-7.737,32.582H183.608a17.212,17.212,0,0,1-6.633-33.1l-10.113-55.622a34.337,34.337,0,0,1-9.558-38.6,5.725,5.725,0,0,1-2.384-4.649Zm11.475-91.8v83.384a34.329,34.329,0,0,1,40.164-4.162v-2.255a13.758,13.758,0,0,0-4.057-9.794,25.135,25.135,0,0,1-7.306-15.536l-.112,0a22.933,22.933,0,0,1-17.213-38.107V121.479A17.241,17.241,0,0,0,166.395,137.7ZM187.054,252.26l19.51,39.019a17.173,17.173,0,0,1,8.092-4.058l-19.5-39.008a4.526,4.526,0,0,0-8.1,4.048ZM223.772,304.1a5.738,5.738,0,1,0-5.738,5.738,5.738,5.738,0,0,0,5.738-5.738Zm3.546-17.213H258.9l4.59-11.475-15.727-39.318a25.652,25.652,0,0,1-2.725,3.211,25.162,25.162,0,0,1-17.909,7.418h-3.361a34.32,34.32,0,0,1-6.486,20.1Zm36.618-114.754H240.985a5.738,5.738,0,1,0,0,11.475h22.951Zm-22.951,22.951a17.213,17.213,0,1,1,0-34.426H258.2a28.538,28.538,0,0,1-17.213-5.753v.016H214.947a22.909,22.909,0,0,1-8.388,31.338v.711a13.758,13.758,0,0,0,4.057,9.794,25.142,25.142,0,0,1,7.309,15.533h23.06a22.992,22.992,0,0,0,22.224-17.213Zm-57.377-28.689a11.475,11.475,0,1,0,11.475-11.475,11.475,11.475,0,0,0-11.475,11.475Zm38.19,68.852h5.335a13.832,13.832,0,0,0,13.637-11.475H214.978a34.452,34.452,0,0,1,6.82,11.475ZM189.346,120.492v23.677a23.026,23.026,0,0,1,11.475,0V120.492Zm97.541,11.475V120.492H212.3v22.951h19.616a28.514,28.514,0,0,1-2.4-11.475h11.475A17.233,17.233,0,0,0,258.2,149.18h11.475A17.233,17.233,0,0,0,286.887,131.967ZM274.361,235.484a12.607,12.607,0,0,0-7.455-6.588l-11.145-3.715L269.5,259.53l5.29-14.107a12.608,12.608,0,0,0-.429-9.939Zm30.933,24.667L293.087,275.41h13.68l6.589-9.884Zm10.281,26.734v11.475h28.688V286.885Zm28.688,22.951H315.575v11.475h28.688Zm-63.115,11.475H304.1V286.885H281.149Zm-11.475-22.951H234.26a17.171,17.171,0,0,1,0,11.475h35.413ZM183.608,350h63.115a5.738,5.738,0,1,0,0-11.475H183.608a5.738,5.738,0,0,0,0,11.475Zm4.789-22.951h54.442l2.295-5.738h-27.1a17.234,17.234,0,0,1-17.144-15.721L188.66,281.13a34.286,34.286,0,0,1-8.855-1.338Zm-6.007-58.457-5.6-11.2a16,16,0,1,1,28.625-14.313l5.6,11.2a22.951,22.951,0,1,0-28.626,14.311Z" transform="translate(-154.918 -109.016)" fill="#262626"/><path d="M147.8,264.8l-8.713-7.468,12.479-14.559-7.584-5.688-13.694,13.694-8.115-8.115,7.418-7.418h-9.1a5.738,5.738,0,0,1-5.738-5.737V206.557a5.738,5.738,0,0,1,5.737-5.738H137.7V183.606a5.738,5.738,0,0,1,5.737-5.738h22.951a5.738,5.738,0,0,1,5.738,5.737v14.836l1.68-1.68a5.74,5.74,0,0,1,8.115,0l17.213,17.213a5.739,5.739,0,0,1,0,8.115l-28.689,28.689a5.739,5.739,0,0,1-7.5.533l-2.186-1.639Zm-21.57-41.029H137.7V212.295H126.229Zm34.426-34.426H149.18V200.82h11.475Zm26.312,28.689-9.1-9.1-9.1,9.1,9.1,9.1Zm-17.214,17.213L156.6,222.09a5.739,5.739,0,0,1,0-8.115l1.68-1.68h-9.1v14.344l16.674,12.506Z" transform="translate(40.165 -109.016)" fill="#262626"/></g></g></svg>